<svg width="246" height="45" viewBox="0 0 246 45" fill="none" xmlns="http://www.w3.org/2000/svg">
<path d="M29.4813 26.8353C30.9648 25.1274 33.8608 24.1256 36.6635 23.1566C37.0741 23.0143 37.5174 22.8556 37.9663 22.6968C35.9792 17.031 30.0562 8.63911 29.7551 8.21759C29.7016 8.14976 29.6333 8.09495 29.5555 8.05726C29.4778 8.01958 29.3926 8 29.3062 8C29.2198 8 29.1344 8.01958 29.0567 8.05726C28.9789 8.09495 28.9108 8.14976 28.8573 8.21759C28.496 8.72668 20 20.7644 20 25.7186C20.0026 28.186 20.9839 30.5515 22.7286 32.2962C24.4732 34.0409 26.8389 35.0222 29.3062 35.0248H29.3664C28.5124 33.2456 27.1821 29.4794 29.4813 26.8353ZM27.631 32.096C27.5938 32.203 27.5245 32.2957 27.4323 32.3614C27.3401 32.4271 27.2296 32.4626 27.1164 32.4628C27.0547 32.4625 26.9936 32.4514 26.9358 32.4299C25.5488 31.9378 24.3481 31.0286 23.4983 29.827C22.6486 28.6254 22.1914 27.1903 22.1897 25.7186C22.1897 25.5734 22.2474 25.4342 22.35 25.3315C22.4527 25.2289 22.5919 25.1712 22.7371 25.1712C22.8823 25.1712 23.0215 25.2289 23.1242 25.3315C23.2268 25.4342 23.2845 25.5734 23.2845 25.7186C23.2864 26.9631 23.673 28.1766 24.3914 29.1928C25.1097 30.209 26.1246 30.9783 27.2972 31.3953C27.4344 31.444 27.5466 31.5452 27.6092 31.6765C27.6718 31.8079 27.6796 31.9588 27.631 32.096Z" fill="#02110B"/>
<path d="M42.8164 22.1553C42.8035 22.0516 42.7612 21.9537 42.6947 21.8732C42.6281 21.7926 42.5399 21.7327 42.4404 21.7005C42.341 21.6683 42.2345 21.6652 42.1333 21.6915C42.0321 21.7177 41.9406 21.7723 41.8693 21.8488C41.1631 22.6371 39.0556 23.3706 37.0192 24.0823C34.3478 25.0074 31.5888 25.9709 30.3078 27.4434C28.1017 29.9835 30.149 34.111 30.6527 35.0307C30.8498 34.6475 31.0742 34.2697 31.3096 33.903C33.9317 29.8466 38.3986 26.9015 38.6395 26.7427C38.7608 26.6649 38.9079 26.6381 39.0487 26.6682C39.1896 26.6984 39.3129 26.783 39.3916 26.9037C39.4704 27.0243 39.4982 27.1712 39.4691 27.3123C39.44 27.4534 39.3563 27.5773 39.2362 27.6569C38.6316 27.908 31.3143 33.4934 30.8335 37.8719C30.8085 38.0128 30.8397 38.1579 30.9204 38.2761C31.0012 38.3942 31.125 38.4761 31.2654 38.504C31.4058 38.5319 31.5515 38.5037 31.6713 38.4254C31.7911 38.3471 31.8755 38.225 31.9063 38.0852C32.087 37.2324 32.3854 36.4089 32.7931 35.6383C32.9354 35.6438 33.0832 35.6492 33.242 35.6492C40.3153 35.7006 43.9217 30.3726 42.8164 22.1553Z" fill="#02110B"/>
<path d="M60.279 17.652C61.2497 17.652 62.1077 17.8687 62.853 18.302C63.607 18.7267 64.1877 19.3203 64.595 20.083C65.011 20.8457 65.219 21.708 65.219 22.67C65.219 23.658 64.907 24.5723 64.283 25.413C63.6677 26.245 62.9007 26.908 61.982 27.402C61.0633 27.8873 60.188 28.13 59.356 28.13C58.9573 28.13 58.563 28.1083 58.173 28.065C57.523 28.0217 57.0247 28 56.678 28H54.624V27.272L55.846 26.31V19.069L54.403 18.627L54.832 17.782H56.665C57.4623 17.782 58.2423 17.756 59.005 17.704C59.5943 17.6693 60.019 17.652 60.279 17.652ZM59.733 26.921C60.279 26.921 60.773 26.765 61.215 26.453C61.6657 26.141 62.0167 25.7077 62.268 25.153C62.528 24.5983 62.658 23.9743 62.658 23.281C62.658 22.449 62.5323 21.6993 62.281 21.032C62.0383 20.356 61.6613 19.8187 61.15 19.42C60.6473 19.0127 60.0233 18.809 59.278 18.809C58.888 18.809 58.5283 18.913 58.199 19.121V26.674C58.641 26.8387 59.148 26.921 59.72 26.921H59.733ZM76.645 28H73.824L71.315 23.502L70.743 23.151L71.068 22.514H71.666C72.134 22.514 72.5023 22.371 72.771 22.085C73.0397 21.799 73.174 21.396 73.174 20.876C73.174 20.2693 73.0093 19.7753 72.68 19.394C72.3593 19.004 71.887 18.809 71.263 18.809C70.873 18.809 70.509 18.9303 70.171 19.173V26.752L71.614 27.168L71.198 28.013H66.596V27.285L67.818 26.258V19.043L66.375 18.64L66.804 17.795H68.962C69.716 17.795 70.457 17.769 71.185 17.717C71.705 17.6823 72.095 17.665 72.355 17.665C73.0223 17.665 73.6117 17.7863 74.123 18.029C74.643 18.263 75.0417 18.5837 75.319 18.991C75.605 19.3983 75.748 19.8533 75.748 20.356C75.748 20.9627 75.4793 21.526 74.942 22.046C74.4047 22.566 73.7503 22.956 72.979 23.216L74.019 23.515L75.709 26.531L77.061 27.155L76.645 28ZM92.1537 28H87.3177V27.272L88.7347 26.427L87.9417 24.49H83.9247L83.2097 26.232L85.1987 27.155L84.7827 28H80.5837V27.272L81.9877 26.219L85.3157 18.198L87.5647 17.535L91.2567 26.492L92.5827 27.155L92.1537 28ZM85.9527 19.589L84.3407 23.489H87.5387L85.9527 19.589ZM102.684 19.55V28H101.566L95.4689 21.045V26.466L97.3149 27.155L96.8989 28H93.1289V27.272L94.3509 26.245V19.42L92.9079 18.627L93.3369 17.782H95.6249L101.566 24.542V19.303L99.7199 18.627L100.149 17.782H103.919V18.51L102.684 19.55ZM109.423 27.987H104.821V27.259L106.043 26.232V19.03L104.6 18.614L105.029 17.769H109.631V18.497L108.396 19.537V26.739L109.839 27.142L109.423 27.987ZM115.882 27.155L115.466 28H110.864V27.272L112.086 26.245V19.043L110.643 18.627L111.072 17.782H115.674V18.51L114.439 19.55V26.739L115.882 27.155ZM121.407 28H118.651L114.946 22.878L118.703 19.576L117.182 18.627L117.611 17.782H121.511V18.51L117.273 22.241L120.419 26.492L121.836 27.155L121.407 28ZM130.836 28.013H122.62V27.285L123.842 26.323V19.056L122.399 18.627L122.828 17.782H130.706L131.642 17.548V20.863L130.927 21.149L129.328 18.77H126.195V22.28H127.742L128.691 20.824H129.419V24.607L128.574 25.036L127.729 23.281H126.195V27.012H129.224L131.057 24.36L131.772 24.659V28.247L130.836 28.013ZM143.06 21.123L142.345 21.409L140.512 18.77H139.303V26.778L140.759 27.155L140.33 28H135.728V27.272L136.95 26.31V18.77H135.793L133.96 21.409L133.245 21.123V17.548L134.181 17.782H142.124L143.06 17.548V21.123ZM153.122 22.917C153.582 22.917 153.946 22.7567 154.214 22.436C154.483 22.1153 154.617 21.6733 154.617 21.11C154.617 20.4253 154.453 19.8707 154.123 19.446C153.794 19.0127 153.309 18.796 152.667 18.796C152.243 18.796 151.844 18.926 151.471 19.186V26.661L153.733 27.155L153.304 28H147.896V27.272L149.118 26.31V19.069L147.675 18.627L148.104 17.782H150.262C151.034 17.782 151.792 17.756 152.537 17.704C153.092 17.6693 153.499 17.652 153.759 17.652C154.435 17.652 155.033 17.7863 155.553 18.055C156.073 18.315 156.476 18.6747 156.762 19.134C157.048 19.5933 157.191 20.1047 157.191 20.668C157.191 21.292 156.953 21.877 156.476 22.423C156 22.969 155.397 23.398 154.669 23.71C153.941 24.022 153.231 24.1607 152.537 24.126L151.965 23.775L152.394 22.93H153.122V22.917ZM168.254 28H165.433L162.924 23.502L162.352 23.151L162.677 22.514H163.275C163.743 22.514 164.112 22.371 164.38 22.085C164.649 21.799 164.783 21.396 164.783 20.876C164.783 20.2693 164.619 19.7753 164.289 19.394C163.969 19.004 163.496 18.809 162.872 18.809C162.482 18.809 162.118 18.9303 161.78 19.173V26.752L163.223 27.168L162.807 28.013H158.205V27.285L159.427 26.258V19.043L157.984 18.64L158.413 17.795H160.571C161.325 17.795 162.066 17.769 162.794 17.717C163.314 17.6823 163.704 17.665 163.964 17.665C164.632 17.665 165.221 17.7863 165.732 18.029C166.252 18.263 166.651 18.5837 166.928 18.991C167.214 19.3983 167.357 19.8533 167.357 20.356C167.357 20.9627 167.089 21.526 166.551 22.046C166.014 22.566 165.36 22.956 164.588 23.216L165.628 23.515L167.318 26.531L168.67 27.155L168.254 28ZM180.132 28H175.296V27.272L176.713 26.427L175.92 24.49H171.903L171.188 26.232L173.177 27.155L172.761 28H168.562V27.272L169.966 26.219L173.294 18.198L175.543 17.535L179.235 26.492L180.561 27.155L180.132 28ZM173.931 19.589L172.319 23.489H175.517L173.931 19.589ZM184.513 26.713C184.513 27.0597 184.522 27.3803 184.539 27.675C184.565 27.961 184.596 28.156 184.63 28.26L181.692 31.432L180.873 30.795C181.376 30.1797 181.714 29.6553 181.887 29.222C182.069 28.7887 182.16 28.2513 182.16 27.61V19.043L180.47 18.627L180.886 17.782H185.748V18.51L184.513 19.472V26.713ZM197.715 28H192.879V27.272L194.296 26.427L193.503 24.49H189.486L188.771 26.232L190.76 27.155L190.344 28H186.145V27.272L187.549 26.219L190.877 18.198L193.126 17.535L196.818 26.492L198.144 27.155L197.715 28ZM191.514 19.589L189.902 23.489H193.1L191.514 19.589ZM203.916 22.917C204.376 22.917 204.74 22.7567 205.008 22.436C205.277 22.1153 205.411 21.6733 205.411 21.11C205.411 20.4253 205.247 19.8707 204.917 19.446C204.588 19.0127 204.103 18.796 203.461 18.796C203.037 18.796 202.638 18.926 202.265 19.186V26.661L204.527 27.155L204.098 28H198.69V27.272L199.912 26.31V19.069L198.469 18.627L198.898 17.782H201.056C201.828 17.782 202.586 17.756 203.331 17.704C203.886 17.6693 204.293 17.652 204.553 17.652C205.229 17.652 205.827 17.7863 206.347 18.055C206.867 18.315 207.27 18.6747 207.556 19.134C207.842 19.5933 207.985 20.1047 207.985 20.668C207.985 21.292 207.747 21.877 207.27 22.423C206.794 22.969 206.191 23.398 205.463 23.71C204.735 24.022 204.025 24.1607 203.331 24.126L202.759 23.775L203.188 22.93H203.916V22.917ZM218.485 28H213.649V27.272L215.066 26.427L214.273 24.49H210.256L209.541 26.232L211.53 27.155L211.114 28H206.915V27.272L208.319 26.219L211.647 18.198L213.896 17.535L217.588 26.492L218.914 27.155L218.485 28ZM212.284 19.589L210.672 23.489H213.87L212.284 19.589ZM228.22 21.123L227.505 21.409L225.672 18.77H224.463V26.778L225.919 27.155L225.49 28H220.888V27.272L222.11 26.31V18.77H220.953L219.12 21.409L218.405 21.123V17.548L219.341 17.782H227.284L228.22 17.548V21.123ZM234.028 27.987H229.426V27.259L230.648 26.232V19.03L229.205 18.614L229.634 17.769H234.236V18.497L233.001 19.537V26.739L234.444 27.142L234.028 27.987Z" fill="black"/>
</svg>
